<svg width="85" height="20" viewBox="0 0 85 20" fill="none" xmlns="http://www.w3.org/2000/svg">
<path d="M6.132 20V4.796H0.112V0.399999H17.668V4.796H11.676V20H6.132ZM22.5334 20V0.399999H31.4934C33.2854 0.399999 34.8254 0.689332 36.1134 1.268C37.4201 1.84667 38.4281 2.68667 39.1374 3.788C39.8468 4.87067 40.2014 6.15867 40.2014 7.652C40.2014 9.12667 39.8468 10.4053 39.1374 11.488C38.4281 12.552 37.4201 13.3733 36.1134 13.952C34.8254 14.512 33.2854 14.792 31.4934 14.792H25.6134L28.0774 12.468V20H22.5334ZM34.6574 20L29.7854 12.86H35.6934L40.5934 20H34.6574ZM28.0774 13.056L25.6134 10.508H31.1574C32.3148 10.508 33.1734 10.256 33.7334 9.752C34.3121 9.248 34.6014 8.548 34.6014 7.652C34.6014 6.73733 34.3121 6.028 33.7334 5.524C33.1734 5.02 32.3148 4.768 31.1574 4.768H25.6134L28.0774 2.22V13.056ZM52.08 20L43.708 0.399999H49.7L56.756 17.368H53.228L60.452 0.399999H65.94L57.54 20H52.08ZM69.8873 20V0.399999H75.4313V15.604H84.7833V20H69.8873Z" fill="white"/>
</svg>
